# This file uses centimeters as units for non-parametric coordinates.

mtllib RingGalleryMaya.mtl
g default
v -120.797176 -0.000000 117.108184
v 121.106182 -0.000000 117.108184
v -120.797176 0.000000 -116.986137
v 121.106182 0.000000 -116.986137
vt 0.000000 0.000000
vt 1.000000 0.000000
vt 0.000000 0.483056
vt 1.000000 0.483056
vn 0.000000 1.000000 0.000000
vn 0.000000 1.000000 0.000000
vn 0.000000 1.000000 0.000000
vn 0.000000 1.000000 0.000000
s off
g pPlane1
usemtl initialShadingGroup
f 1/1/1 2/2/2 4/4/3 3/3/4
g default
v -22.704256 0.000000 -28.797371
v -23.587173 0.000000 -30.530192
v -24.962348 0.000000 -31.905367
v -26.695169 0.000000 -32.788283
v -28.616015 0.000000 -33.092514
v -30.536862 0.000000 -32.788282
v -32.269682 0.000000 -31.905365
v -33.644856 0.000000 -30.530191
v -34.527772 0.000000 -28.797370
v -34.832004 0.000000 -26.876524
v -34.527772 0.000000 -24.955678
v -33.644856 0.000000 -23.222858
v -32.269682 0.000000 -21.847684
v -30.536862 0.000000 -20.964768
v -28.616016 0.000000 -20.660536
v -26.695170 0.000000 -20.964769
v -24.962350 0.000000 -21.847684
v -23.587176 0.000000 -23.222858
v -22.704260 0.000000 -24.955678
v -22.400028 0.000000 -26.876524
v -22.704256 11.941477 -28.797371
v -23.587173 11.941477 -30.530192
v -24.962348 11.941477 -31.905367
v -26.695169 11.941477 -32.788283
v -28.616015 11.941477 -33.092514
v -30.536862 11.941477 -32.788282
v -32.269682 11.941477 -31.905365
v -33.644856 11.941477 -30.530191
v -34.527772 11.941477 -28.797370
v -34.832004 11.941477 -26.876524
v -34.527772 11.941477 -24.955678
v -33.644856 11.941477 -23.222858
v -32.269682 11.941477 -21.847684
v -30.536862 11.941477 -20.964768
v -28.616016 11.941477 -20.660536
v -26.695170 11.941477 -20.964769
v -24.962350 11.941477 -21.847684
v -23.587176 11.941477 -23.222858
v -22.704260 11.941477 -24.955678
v -22.400028 11.941477 -26.876524
v -28.616015 0.000000 -26.876524
v -28.616015 11.941477 -26.876524
vt 0.648603 0.107966
vt 0.626409 0.064408
vt 0.591842 0.029841
vt 0.548284 0.007647
vt 0.500000 -0.000000
vt 0.451716 0.007647
vt 0.408159 0.029841
vt 0.373591 0.064409
vt 0.351397 0.107966
vt 0.343750 0.156250
vt 0.351397 0.204534
vt 0.373591 0.248091
vt 0.408159 0.282659
vt 0.451716 0.304853
vt 0.500000 0.312500
vt 0.548284 0.304853
vt 0.591841 0.282659
vt 0.626409 0.248091
vt 0.648603 0.204534
vt 0.656250 0.156250
vt 0.375000 0.312500
vt 0.387500 0.312500
vt 0.400000 0.312500
vt 0.412500 0.312500
vt 0.425000 0.312500
vt 0.437500 0.312500
vt 0.450000 0.312500
vt 0.462500 0.312500
vt 0.475000 0.312500
vt 0.487500 0.312500
vt 0.500000 0.312500
vt 0.512500 0.312500
vt 0.525000 0.312500
vt 0.537500 0.312500
vt 0.550000 0.312500
vt 0.562500 0.312500
vt 0.575000 0.312500
vt 0.587500 0.312500
vt 0.600000 0.312500
vt 0.612500 0.312500
vt 0.625000 0.312500
vt 0.375000 0.688440
vt 0.387500 0.688440
vt 0.400000 0.688440
vt 0.412500 0.688440
vt 0.425000 0.688440
vt 0.437500 0.688440
vt 0.450000 0.688440
vt 0.462500 0.688440
vt 0.475000 0.688440
vt 0.487500 0.688440
vt 0.500000 0.688440
vt 0.512500 0.688440
vt 0.525000 0.688440
vt 0.537500 0.688440
vt 0.550000 0.688440
vt 0.562500 0.688440
vt 0.575000 0.688440
vt 0.587500 0.688440
vt 0.600000 0.688440
vt 0.612500 0.688440
vt 0.625000 0.688440
vt 0.648603 0.795466
vt 0.626409 0.751908
vt 0.591842 0.717341
vt 0.548284 0.695147
vt 0.500000 0.687500
vt 0.451716 0.695147
vt 0.408159 0.717341
vt 0.373591 0.751909
vt 0.351397 0.795466
vt 0.343750 0.843750
vt 0.351397 0.892034
vt 0.373591 0.935591
vt 0.408159 0.970159
vt 0.451716 0.992353
vt 0.500000 1.000000
vt 0.548284 0.992353
vt 0.591841 0.970159
vt 0.626409 0.935591
vt 0.648603 0.892034
vt 0.656250 0.843750
vt 0.500000 0.150000
vt 0.500000 0.837500
vn 0.951057 0.000000 -0.309016
vn 0.809017 0.000000 -0.587785
vn 0.809017 0.000000 -0.587785
vn 0.951057 0.000000 -0.309016
vn 0.587785 0.000000 -0.809017
vn 0.587785 0.000000 -0.809017
vn 0.309017 0.000000 -0.951057
vn 0.309017 0.000000 -0.951057
vn 0.000000 0.000000 -1.000000
vn 0.000000 0.000000 -1.000000
vn -0.309017 0.000000 -0.951057
vn -0.309017 0.000000 -0.951057
vn -0.587786 0.000000 -0.809017
vn -0.587786 0.000000 -0.809017
vn -0.809017 0.000000 -0.587785
vn -0.809017 0.000000 -0.587785
vn -0.951057 0.000000 -0.309017
vn -0.951057 0.000000 -0.309017
vn -1.000000 0.000000 0.000000
vn -1.000000 0.000000 0.000000
vn -0.951057 0.000000 0.309017
vn -0.951057 0.000000 0.309017
vn -0.809017 0.000000 0.587785
vn -0.809017 0.000000 0.587785
vn -0.587785 0.000000 0.809017
vn -0.587785 0.000000 0.809017
vn -0.309017 0.000000 0.951057
vn -0.309017 0.000000 0.951057
vn 0.000000 0.000000 1.000000
vn 0.000000 0.000000 1.000000
vn 0.309017 0.000000 0.951057
vn 0.309017 0.000000 0.951057
vn 0.587785 0.000000 0.809017
vn 0.587785 0.000000 0.809017
vn 0.809017 0.000000 0.587785
vn 0.809017 0.000000 0.587785
vn 0.951057 0.000000 0.309017
vn 0.951057 0.000000 0.309017
vn 1.000000 0.000000 0.000001
vn 1.000000 0.000000 0.000001
vn 0.000000 -1.000000 0.000000
vn 0.000000 -1.000000 0.000000
vn 0.000000 -1.000000 -0.000000
vn 0.000000 -1.000000 0.000000
vn 0.000000 -1.000000 0.000000
vn 0.000000 -1.000000 0.000000
vn 0.000000 -1.000000 0.000000
vn 0.000000 -1.000000 0.000000
vn 0.000000 -1.000000 0.000000
vn 0.000000 -1.000000 0.000000
vn 0.000000 -1.000000 0.000000
vn 0.000000 -1.000000 -0.000000
vn 0.000000 -1.000000 -0.000000
vn 0.000000 -1.000000 0.000000
vn 0.000000 -1.000000 0.000000
vn 0.000000 -1.000000 -0.000000
vn 0.000000 -1.000000 -0.000000
vn 0.000000 -1.000000 -0.000000
vn 0.000000 -1.000000 0.000000
vn 0.000000 -1.000000 0.000000
vn 0.000000 -1.000000 0.000000
vn 0.000000 1.000000 0.000000
vn 0.000000 1.000000 -0.000000
vn 0.000000 1.000000 -0.000000
vn 0.000000 1.000000 -0.000000
vn 0.000000 1.000000 0.000000
vn 0.000000 1.000000 0.000000
vn 0.000000 1.000000 -0.000000
vn 0.000000 1.000000 -0.000000
vn 0.000000 1.000000 0.000000
vn 0.000000 1.000000 0.000000
vn 0.000000 1.000000 0.000000
vn 0.000000 1.000000 0.000000
vn 0.000000 1.000000 0.000000
vn 0.000000 1.000000 0.000000
vn 0.000000 1.000000 0.000000
vn 0.000000 1.000000 0.000000
vn 0.000000 1.000000 -0.000000
vn 0.000000 1.000000 -0.000000
vn 0.000000 1.000000 0.000000
vn 0.000000 1.000000 0.000000
vn 0.000000 1.000000 0.000000
s 1
g pCylinder1
usemtl initialShadingGroup
f 5/25/5 6/26/6 26/47/7 25/46/8
f 6/26/6 7/27/9 27/48/10 26/47/7
f 7/27/9 8/28/11 28/49/12 27/48/10
f 8/28/11 9/29/13 29/50/14 28/49/12
f 9/29/13 10/30/15 30/51/16 29/50/14
f 10/30/15 11/31/17 31/52/18 30/51/16
f 11/31/17 12/32/19 32/53/20 31/52/18
f 12/32/19 13/33/21 33/54/22 32/53/20
f 13/33/21 14/34/23 34/55/24 33/54/22
f 14/34/23 15/35/25 35/56/26 34/55/24
f 15/35/25 16/36/27 36/57/28 35/56/26
f 16/36/27 17/37/29 37/58/30 36/57/28
f 17/37/29 18/38/31 38/59/32 37/58/30
f 18/38/31 19/39/33 39/60/34 38/59/32
f 19/39/33 20/40/35 40/61/36 39/60/34
f 20/40/35 21/41/37 41/62/38 40/61/36
f 21/41/37 22/42/39 42/63/40 41/62/38
f 22/42/39 23/43/41 43/64/42 42/63/40
f 23/43/41 24/44/43 44/65/44 43/64/42
f 24/44/43 5/45/5 25/66/8 44/65/44
s 2
f 6/6/45 5/5/46 45/87/47
f 7/7/48 6/6/45 45/87/47
f 8/8/49 7/7/48 45/87/47
f 9/9/50 8/8/49 45/87/47
f 10/10/51 9/9/50 45/87/47
f 11/11/52 10/10/51 45/87/47
f 12/12/53 11/11/52 45/87/47
f 13/13/54 12/12/53 45/87/47
f 14/14/55 13/13/54 45/87/47
f 15/15/56 14/14/55 45/87/47
f 16/16/57 15/15/56 45/87/47
f 17/17/58 16/16/57 45/87/47
f 18/18/59 17/17/58 45/87/47
f 19/19/60 18/18/59 45/87/47
f 20/20/61 19/19/60 45/87/47
f 21/21/62 20/20/61 45/87/47
f 22/22/63 21/21/62 45/87/47
f 23/23/64 22/22/63 45/87/47
f 24/24/65 23/23/64 45/87/47
f 5/5/46 24/24/65 45/87/47
s 3
f 25/85/66 26/84/67 46/88/68
f 26/84/67 27/83/69 46/88/68
f 27/83/69 28/82/70 46/88/68
f 28/82/70 29/81/71 46/88/68
f 29/81/71 30/80/72 46/88/68
f 30/80/72 31/79/73 46/88/68
f 31/79/73 32/78/74 46/88/68
f 32/78/74 33/77/75 46/88/68
f 33/77/75 34/76/76 46/88/68
f 34/76/76 35/75/77 46/88/68
f 35/75/77 36/74/78 46/88/68
f 36/74/78 37/73/79 46/88/68
f 37/73/79 38/72/80 46/88/68
f 38/72/80 39/71/81 46/88/68
f 39/71/81 40/70/82 46/88/68
f 40/70/82 41/69/83 46/88/68
f 41/69/83 42/68/84 46/88/68
f 42/68/84 43/67/85 46/88/68
f 43/67/85 44/86/86 46/88/68
f 44/86/86 25/85/66 46/88/68
